<svg width="32" height="32" viewBox="0 0 32 32" fill="none" xmlns="http://www.w3.org/2000/svg">
<rect width="32" height="32" rx="8" fill="#2787F5"/>
<path d="M25.0982 21.0933C25.0749 21.0432 25.0533 21.0016 25.0331 20.9683C24.7 20.3683 24.0634 19.6319 23.1238 18.7589L23.1039 18.7389L23.094 18.7291L23.0839 18.719H23.0738C22.6474 18.3125 22.3773 18.0391 22.2642 17.8992C22.0573 17.6326 22.0109 17.3627 22.124 17.0893C22.2039 16.8827 22.5041 16.4465 23.0237 15.7799C23.2971 15.4267 23.5136 15.1435 23.6734 14.9302C24.8265 13.3974 25.3264 12.4178 25.173 11.9912L25.1134 11.8916C25.0734 11.8315 24.9701 11.7766 24.8037 11.7266C24.6369 11.6766 24.4237 11.6683 24.1637 11.7016L21.2848 11.7215C21.2381 11.705 21.1715 11.7065 21.0848 11.7266C20.9981 11.7466 20.9548 11.7567 20.9548 11.7567L20.9047 11.7817L20.8649 11.8118C20.8316 11.8317 20.7949 11.8666 20.7549 11.9166C20.7151 11.9665 20.6818 12.0249 20.6552 12.0916C20.3417 12.898 19.9854 13.6477 19.5854 14.3408C19.3388 14.754 19.1123 15.1122 18.9055 15.4154C18.699 15.7186 18.5257 15.9419 18.3858 16.0851C18.2458 16.2284 18.1194 16.3432 18.0059 16.4299C17.8925 16.5167 17.806 16.5534 17.7461 16.54C17.6861 16.5265 17.6295 16.5132 17.576 16.4999C17.4827 16.4399 17.4077 16.3583 17.3512 16.255C17.2944 16.1517 17.2562 16.0217 17.2362 15.8651C17.2163 15.7084 17.2045 15.5736 17.2011 15.4602C17.198 15.347 17.1995 15.1869 17.2062 14.9803C17.2132 14.7737 17.2163 14.6338 17.2163 14.5605C17.2163 14.3072 17.2212 14.0323 17.2311 13.7358C17.2412 13.4392 17.2494 13.2042 17.2562 13.0311C17.263 12.8578 17.2661 12.6745 17.2661 12.4812C17.2661 12.2879 17.2544 12.1364 17.2311 12.0264C17.2082 11.9165 17.1729 11.8098 17.1264 11.7064C17.0797 11.6032 17.0113 11.5233 16.9215 11.4665C16.8315 11.4099 16.7197 11.3649 16.5866 11.3315C16.2334 11.2516 15.7836 11.2083 15.237 11.2016C13.9974 11.1883 13.201 11.2684 12.8478 11.4416C12.7078 11.5148 12.5812 11.6149 12.4679 11.7414C12.348 11.8881 12.3312 11.9681 12.4178 11.9813C12.8178 12.0412 13.1009 12.1845 13.2675 12.4111L13.3276 12.5312C13.3743 12.6178 13.4209 12.7711 13.4676 12.991C13.5142 13.2109 13.5443 13.4541 13.5575 13.7206C13.5908 14.2072 13.5908 14.6237 13.5575 14.9702C13.5241 15.3168 13.4926 15.5867 13.4625 15.78C13.4325 15.9732 13.3875 16.1298 13.3276 16.2498C13.2675 16.3697 13.2276 16.443 13.2075 16.4696C13.1875 16.4963 13.1709 16.513 13.1576 16.5196C13.071 16.5528 12.9809 16.5697 12.8877 16.5697C12.7943 16.5697 12.6811 16.523 12.5478 16.4297C12.4146 16.3363 12.2763 16.2081 12.133 16.0448C11.9897 15.8815 11.8281 15.6532 11.6481 15.36C11.4682 15.0668 11.2816 14.7203 11.0883 14.3204L10.9284 14.0304C10.8284 13.8439 10.6919 13.5722 10.5186 13.2158C10.3452 12.8592 10.192 12.5142 10.0587 12.181C10.0055 12.041 9.92547 11.9345 9.81886 11.8612L9.76882 11.8311C9.73556 11.8045 9.68216 11.7762 9.60892 11.7461C9.53556 11.716 9.45902 11.6945 9.37898 11.6812L6.63991 11.7011C6.36001 11.7011 6.1701 11.7645 6.0701 11.8911L6.03008 11.951C6.01008 11.9844 6 12.0377 6 12.1111C6 12.1844 6.01999 12.2744 6.06001 12.3809C6.45987 13.3207 6.8947 14.227 7.36451 15.1C7.83432 15.9731 8.24258 16.6763 8.58904 17.2091C8.93557 17.7424 9.28879 18.2456 9.64869 18.7186C10.0086 19.1918 10.2468 19.4951 10.3634 19.6283C10.4801 19.7618 10.5718 19.8616 10.6384 19.9282L10.8883 20.1681C11.0483 20.3281 11.2832 20.5197 11.5931 20.7429C11.903 20.9662 12.2462 21.1861 12.6227 21.4029C12.9993 21.6193 13.4375 21.7959 13.9374 21.9325C14.4372 22.0692 14.9237 22.1241 15.3969 22.0976H16.5465C16.7797 22.0775 16.9563 22.0042 17.0764 21.8776L17.1161 21.8275C17.1429 21.7878 17.1679 21.726 17.191 21.6428C17.2144 21.5595 17.226 21.4677 17.226 21.3679C17.2192 21.0814 17.241 20.8232 17.2909 20.5933C17.3407 20.3634 17.3975 20.1902 17.461 20.0735C17.5245 19.9569 17.5961 19.8585 17.6759 19.7787C17.7558 19.6988 17.8127 19.6503 17.8461 19.6337C17.8793 19.6169 17.9058 19.6055 17.9258 19.5987C18.0857 19.5454 18.274 19.597 18.4908 19.7538C18.7074 19.9104 18.9106 20.1038 19.1006 20.3336C19.2906 20.5636 19.5188 20.8217 19.7853 21.1082C20.052 21.3949 20.2852 21.6079 20.4851 21.7481L20.6849 21.868C20.8184 21.9481 20.9917 22.0214 21.205 22.088C21.4179 22.1546 21.6045 22.1713 21.7646 22.138L24.3237 22.0981C24.5768 22.0981 24.7737 22.0562 24.9134 21.973C25.0534 21.8897 25.1366 21.7979 25.1634 21.6981C25.1902 21.5982 25.1916 21.4848 25.1685 21.3581C25.1448 21.2316 25.1214 21.1432 25.0982 21.0933Z" fill="white"/>
</svg>
