<svg width="24" height="25" viewBox="0 0 24 25" fill="none" xmlns="http://www.w3.org/2000/svg">
<mask id="mask0_1_709" style="mask-type:alpha" maskUnits="userSpaceOnUse" x="0" y="0" width="24" height="25">
<rect y="0.714844" width="24" height="24" fill="#C4C4C4"/>
</mask>
<g mask="url(#mask0_1_709)">
<path d="M10.9239 22.3928L10.9224 22.3915C7.81557 19.5742 5.31738 17.3035 3.58421 15.1831C1.86203 13.0761 1 11.24 1 9.30885C1 6.15769 3.45246 3.71484 6.59401 3.71484C8.3778 3.71484 10.1064 4.55042 11.2303 5.85986L11.9891 6.74401L12.7479 5.85986C13.8718 4.55042 15.6004 3.71484 17.3842 3.71484C20.5257 3.71484 22.9782 6.15769 22.9782 9.30885C22.9782 11.24 22.1162 13.0761 20.394 15.1831C18.6608 17.3035 16.1626 19.5742 13.0558 22.3915L13.0543 22.3928L11.9891 23.3625L10.9239 22.3928Z" fill="white" stroke="#251B5B" stroke-width="2"/>
</g>
</svg>
